<svg xmlns="http://www.w3.org/2000/svg" width="15" height="21" viewBox="0 0 15 21">
  <metadata><?xpacket begin="﻿" id="W5M0MpCehiHzreSzNTczkc9d"?>
<x:xmpmeta xmlns:x="adobe:ns:meta/" x:xmptk="Adobe XMP Core 5.6-c140 79.160451, 2017/05/06-01:08:21        ">
   <rdf:RDF xmlns:rdf="http://www.w3.org/1999/02/22-rdf-syntax-ns#">
      <rdf:Description rdf:about=""/>
   </rdf:RDF>
</x:xmpmeta>
                                                                                                    
                                                                                                    
                                                                                                    
                                                                                                    
                                                                                                    
                                                                                                    
                                                                                                    
                                                                                                    
                                                                                                    
                                                                                                    
                                                                                                    
                                                                                                    
                                                                                                    
                                                                                                    
                                                                                                    
                                                                                                    
                                                                                                    
                                                                                                    
                                                                                                    
                                                                                                    
                           
<?xpacket end="w"?></metadata>
<defs>
    <style>
      .cls-1 {
        fill: #e43333;
        fill-rule: evenodd;
      }
    </style>
  </defs>
  <path id="Wi-Fi" class="cls-1" d="M942.7,951.881a14.682,14.682,0,0,0,0-20.777,0.383,0.383,0,1,0-.542.541,13.919,13.919,0,0,1,0,19.7A0.383,0.383,0,1,0,942.7,951.881Zm-2.253-18.529a0.384,0.384,0,0,0-.655.271,0.382,0.382,0,0,0,.112.27,10.74,10.74,0,0,1,0,15.2,0.383,0.383,0,1,0,.543.54A11.506,11.506,0,0,0,940.442,933.352Zm0.188,8.14a8.265,8.265,0,0,0-2.442-5.891,0.383,0.383,0,1,0-.542.541,7.565,7.565,0,0,1,0,10.7,0.383,0.383,0,0,0,.542.541A8.266,8.266,0,0,0,940.63,941.492Zm-3.606,0A2.512,2.512,0,1,0,934.512,944,2.512,2.512,0,0,0,937.024,941.492Z" transform="translate(-932 -931)"/>
</svg>
