<svg width="1919" height="264" viewBox="0 0 1919 264" fill="none" xmlns="http://www.w3.org/2000/svg">
<path d="M213.5 21.5002C101.5 -20.9998 55 11.5002 0.5 37.0002V263.5H1920C1936.67 225.333 1970.76 142.866 1994.5 114C2038.5 60.5001 1879.5 -63.9999 1751.5 50.5001C1704.36 105.108 1656 158 1598.5 167C1536.35 181.623 1472.53 155.165 1444 144.5C1392 129 1288 57.5001 1186.5 50.5001C1023.15 39.2348 856.5 56.5001 779 67.0001C701.5 77.5001 718.5 79.0001 672 85.0001C634.8 89.8001 579.167 108.667 556 117.5C538.8 127.1 508.5 134.5 495.5 137C406 161 232 29.0001 213.5 21.5002Z" fill="#D5333E"/>
</svg>
