<svg width="94" height="85" viewBox="0 0 94 85" fill="none" xmlns="http://www.w3.org/2000/svg">
<path d="M16.4841 50.7596L16.4841 50.7596C15.7794 51.7186 15.6489 52.9293 16.1425 53.9931L16.1425 53.9932C19.7012 61.6541 27.6277 66.3996 36.8074 66.4009H36.8075H36.8075H36.8075H36.8075H36.8075H36.8075H36.8076H36.8076H36.8076H36.8076H36.8076H36.8076H36.8077H36.8077H36.8077H36.8077H36.8077H36.8077H36.8078H36.8078H36.8078H36.8078H36.8078H36.8078H36.8079H36.8079H36.8079H36.8079H36.8079H36.8079H36.8079H36.808H36.808H36.808H36.808H36.808H36.808H36.8081H36.8081H36.8081H36.8081H36.8081H36.8081H36.8081H36.8082H36.8082H36.8082H36.8082H36.8082H36.8083H36.8083H36.8083H36.8083H36.8083H36.8083H36.8084H36.8084H36.8084H36.8084H36.8085H36.8085H36.8085H36.8085H36.8085H36.8085H36.8086H36.8086H36.8086H36.8086H36.8086H36.8087H36.8087H36.8087H36.8087H36.8087H36.8088H36.8088H36.8088H36.8088H36.8088H36.8089H36.8089H36.8089H36.8089H36.8089H36.8089H36.809H36.809H36.809H36.809H36.809H36.8091H36.8091H36.8091H36.8091H36.8091H36.8091H36.8092H36.8092H36.8092H36.8092H36.8092H36.8092H36.8093H36.8093H36.8093H36.8093H36.8093H36.8093H36.8094H36.8094H36.8094H36.8094H36.8094H36.8094H36.8094H36.8095H36.8095H36.8095H36.8095H36.8095H36.8095H36.8096H36.8096H36.8096H36.8096H36.8096H36.8096H36.8097H36.8097H36.8097H36.8097H36.8097H36.8097H36.8098H36.8098H36.8098H36.8098H36.8098H36.8098H36.8099H36.8099H36.8099H36.8099H36.8099H36.8099H36.81H36.81H36.81H36.81H36.81H36.81H36.8101H36.8101H36.8101H36.8101H36.8101H36.8102H36.8102H36.8102H36.8102H36.8102H36.8102H36.8103H36.8103H36.8103H36.8103H36.8103H36.8104H36.8104H36.8104H36.8104H36.8104H36.8104C45.9829 66.4009 53.904 61.6547 57.4626 53.9932C57.9562 52.9309 57.8274 51.7202 57.1234 50.7611L57.1232 50.7609C56.4175 49.8013 55.2443 49.2354 53.9911 49.2354L19.6156 49.2354L19.6155 49.2354C18.3618 49.2361 17.1892 49.8004 16.4841 50.7596ZM36.7985 62.9018C29.2043 62.9018 22.6776 59.0011 19.7101 52.7366H53.8966C50.9291 59.001 44.3987 62.9018 36.7985 62.9018Z" fill="white" stroke="white" stroke-width="0.5"/>
<path d="M21.5611 39.4621C21.5611 37.5082 23.3287 35.8757 25.5543 35.8757C27.7791 35.8757 29.546 37.5081 29.546 39.4621C29.546 40.451 30.4265 41.2131 31.4556 41.2131C32.484 41.2131 33.3643 40.4509 33.3643 39.4621C33.3643 35.5304 29.8372 32.3745 25.5543 32.3745C21.2714 32.3745 17.7443 35.5304 17.7443 39.4621C17.7443 40.4508 18.6237 41.2131 19.6523 41.2131C20.6807 41.2131 21.5611 40.4509 21.5611 39.4621Z" fill="white" stroke="white" stroke-width="0.5"/>
<path d="M44.0599 39.4621C44.0599 37.5081 45.8268 35.8757 48.0524 35.8757C50.2779 35.8757 52.0449 37.5081 52.0449 39.4621C52.0449 40.4509 52.9252 41.2131 53.9536 41.2131C54.9827 41.2131 55.8631 40.451 55.8631 39.4621C55.8631 35.5303 52.3352 32.3745 48.0524 32.3745C43.7695 32.3745 40.2416 35.5303 40.2416 39.4621C40.2416 40.4509 41.122 41.2131 42.1503 41.2131C43.1794 41.2131 44.0599 40.451 44.0599 39.4621Z" fill="white" stroke="white" stroke-width="0.5"/>
<path d="M76.2307 56.8342L76.231 56.8347C77.9043 59.4394 80.0243 61.8064 82.5321 63.8713L82.5321 63.8714C83.5227 64.6876 83.8519 65.9134 83.3615 67.0582L83.1317 66.9598L83.3615 67.0582C82.8023 68.3631 81.3993 69.1196 79.8462 68.8682L79.846 68.8681C75.6878 68.1923 69.576 66.7211 63.8086 63.5393C61.6605 66.2756 59.0492 68.645 56.0396 70.5879L56.0394 70.5881C55.6214 70.8573 55.1074 70.9389 54.6318 70.8667C54.1566 70.7945 53.6959 70.5649 53.3943 70.1812M76.2307 56.8342L53.5909 70.0267M76.2307 56.8342C76.1912 56.773 76.1923 56.6595 76.3224 56.5738L76.3225 56.5737C84.8822 50.9269 89.9922 41.8354 89.9741 32.2451C89.943 15.6835 75.0585 2.25 56.8455 2.25C52.8594 2.25 48.9104 2.90743 45.1113 4.205C44.1373 4.53749 43.6091 5.54601 43.9952 6.47194L43.9953 6.47225C44.3661 7.3582 45.5007 7.80756 46.4451 7.48553L46.4452 7.4855C49.8067 6.33775 53.2933 5.75663 56.8087 5.75663C72.9864 5.75663 86.1283 17.6651 86.1558 32.2522C86.1713 40.703 81.6683 48.7354 74.0923 53.7321C72.3885 54.8557 71.8757 56.9563 72.9419 58.6122C74.4293 60.9268 76.2302 63.0732 78.3118 65.0152C74.7091 64.2722 70.1596 62.9451 65.8571 60.5839C68.548 56.1515 69.9676 51.1678 69.9676 46.1324C69.9676 29.5546 55.0743 16.1096 36.8195 16.1096C35.6993 16.1096 34.5678 16.1612 33.4402 16.2635C35.6149 13.6861 38.3346 11.4483 41.3776 9.74351L41.3777 9.74346C42.2725 9.24166 42.5692 8.15328 41.9985 7.31863L41.7921 7.45975L41.9985 7.31862C41.4549 6.52384 40.2521 6.2725 39.3857 6.75529L39.3852 6.75557C34.7962 9.32676 30.9312 12.908 28.1955 17.1241C13.7646 20.5908 3.66488 32.4533 3.6392 46.079L3.8892 46.0795L3.6392 46.079C3.6218 55.6693 8.73102 64.7614 17.2908 70.4076L17.2909 70.4077C17.421 70.4934 17.4222 70.6066 17.383 70.6678C15.709 73.2733 13.5896 75.6417 11.0813 77.7058L11.2401 77.8989L11.0812 77.7059C10.0904 78.5216 9.76223 79.7475 10.2525 80.8927C10.7378 82.0281 11.8905 82.7507 13.1762 82.7507C13.368 82.7507 13.5649 82.7354 13.7676 82.7028L13.768 82.7027C18.5835 81.9197 25.6543 80.1398 31.9415 76.1039L31.9419 76.1037C32.1613 75.9624 32.455 75.8941 32.7788 75.9311L32.7798 75.9312C34.1209 76.0787 35.4829 76.153 36.8278 76.153C41.5933 76.153 46.2048 75.2493 50.5335 73.4645L50.5338 73.4644C51.4828 73.072 51.9355 72.0311 51.483 71.1325L51.4829 71.1323C51.0501 70.2752 49.8877 69.8928 48.9671 70.2707L48.9668 70.2708C45.1344 71.8499 41.0502 72.6512 36.8255 72.6512C35.6324 72.6512 34.4235 72.5845 33.2347 72.454C31.9769 72.316 30.7496 72.5929 29.7518 73.2338C24.9259 76.3318 19.534 77.9769 15.3019 78.848C17.3809 76.9101 19.1817 74.7636 20.6715 72.4452C21.736 70.7888 21.2234 68.6883 19.521 67.5653C11.945 62.5679 7.44118 54.5355 7.4575 46.0854C7.48493 31.5121 20.6259 19.6135 36.8038 19.6135C53.0093 19.6135 66.1501 31.5329 66.1501 46.1317C66.1501 54.6697 61.5551 62.7444 53.8414 67.7245M76.2307 56.8342L53.8414 67.7245M53.3943 70.1812L53.5909 70.0267M53.3943 70.1812C53.3944 70.1813 53.3945 70.1814 53.3946 70.1815L53.5909 70.0267M53.3943 70.1812C53.0947 69.8011 52.9724 69.3316 53.0587 68.8635M53.5909 70.0267C53.3338 69.7007 53.2318 69.3034 53.3046 68.9088M53.0587 68.8635C53.0587 68.8637 53.0586 68.8639 53.0586 68.864L53.3046 68.9088M53.0587 68.8635C53.1441 68.3951 53.4277 67.9913 53.8414 67.7245M53.0587 68.8635L53.3046 68.9088M53.3046 68.9088L53.8414 67.7245" fill="white" stroke="white" stroke-width="0.5"/>
</svg>
