<svg width="79" height="80" viewBox="0 0 79 80" fill="none" xmlns="http://www.w3.org/2000/svg">
<g clip-path="url(#clip0)">
<mask id="path-1-outside-1" maskUnits="userSpaceOnUse" x="-0.420898" y="-1" width="68" height="82" fill="black">
<rect fill="white" x="-0.420898" y="-1" width="68" height="82"/>
<path d="M61.65 65.9971H57.3705L55.0376 60.4213L60.7427 57.5694C62.558 56.6607 63.3361 54.5863 62.6872 52.7717L55.2968 32.9325C54.5187 30.8581 52.3143 29.9501 50.2399 30.5983C50.2399 30.5983 50.1107 30.5983 50.1107 30.7282L44.6654 33.0618L43.8873 31.1172L46.8698 27.6165C48.9435 25.2823 50.2406 22.4297 50.6303 19.3181L54.3908 14.7801C56.8536 11.9269 56.3354 7.64814 53.4828 5.18466C52.9646 4.7963 52.4456 4.40725 51.9273 4.14744C50.5004 3.49926 49.0741 3.37003 47.5186 3.75908L47.1275 2.59195C46.4794 0.517506 44.1458 -0.519715 42.2006 0.258372L14.8417 10.1123C12.7673 10.8904 11.7301 13.0941 12.5088 15.0386V15.1685L13.1563 16.8539C9.78555 18.4101 8.22937 22.3005 9.39582 25.6713C10.3038 28.2647 12.6367 30.08 15.36 30.4684L21.4548 31.1165C23.9183 32.9318 26.9 34.099 29.8831 34.3581L34.1613 34.7472L34.9393 36.6917C34.0313 37.21 33.3832 38.1186 33.124 39.2851L32.216 43.6938L0.579102 56.5315L1.48778 58.995L19.6402 51.7345L24.0489 64.9599L0.579102 74.6839L1.61632 77.0188L38.8298 61.5884L45.3122 62.3665L47.6465 69.4978L44.5348 72.4802C43.3677 73.5175 42.9793 75.2029 43.6268 76.759L44.9239 80.0006L66.4471 71.5722L65.2799 68.4606C64.7617 66.9044 63.3354 65.9971 61.65 65.9971ZM50.8881 6.48169C52.9625 7.38969 54.0004 9.85249 53.0924 12.0575C52.9625 12.4459 52.7034 12.7057 52.4442 13.0947L50.8881 15.0393C50.7588 13.7429 50.499 12.5758 50.11 11.2794L48.4239 6.22256C49.3326 6.09265 50.11 6.22256 50.8881 6.48169ZM15.879 28.0056C14.0643 27.8757 12.5088 26.7085 11.9892 25.0231C11.2111 22.8188 12.1184 20.4852 14.1929 19.4473L16.0082 23.8567C16.6564 25.4122 17.5644 26.9683 18.6016 28.2647L15.879 28.0056ZM30.4014 31.8953C25.0854 31.3764 20.4176 28.0056 18.4724 22.9487L15.1016 14.3911C14.8417 13.7422 15.1016 12.9642 15.7491 12.7057L43.1079 2.85176C43.4976 2.72186 43.7561 2.72186 44.1458 2.85176C44.4042 2.98099 44.6647 3.24012 44.794 3.62985L47.6465 12.1874C49.2027 16.9845 48.1654 22.1713 44.9239 25.9311L40.9042 30.599L42.0707 33.7106L37.4028 35.6551L36.1065 32.4136L30.4014 31.8953ZM26.5117 63.9227L22.103 50.6966L25.0854 49.5294L28.327 59.3834L30.7905 58.6053L27.4197 48.4915L32.6058 46.4171L37.0145 59.5133L26.5117 63.9227ZM39.6079 58.995L34.8101 44.6025L35.7188 39.8047C35.848 39.4164 36.1072 39.0266 36.4969 38.8967L51.0187 32.6734C51.6668 32.4136 52.4456 32.6734 52.7047 33.3216L53.742 36.0449L47.3887 38.1193L48.1668 40.5828L54.52 38.5084L56.0755 42.6579L49.9814 44.7317L50.7595 47.1959L56.9828 45.1214L58.539 49.2703L52.5741 51.2155L53.3522 53.6797L59.4456 51.6052L60.0938 53.2906C60.3536 53.9395 60.0938 54.587 59.4456 54.8468L49.2027 59.903C48.9428 60.0329 48.6837 60.0329 48.4246 60.0329L39.6079 58.995ZM54.5187 66.1256L49.8508 67.6818L48.1654 62.7555C48.9428 62.8848 49.591 62.7555 50.2392 62.3665L52.4436 61.3286L54.5187 66.1256ZM46.3495 76.6284L45.9611 75.8503C45.8312 75.3321 45.9611 74.8131 46.2209 74.4248L50.6289 70.2745L56.2048 68.4599H61.3909C62.039 68.4599 62.4288 68.7183 62.6872 69.238L62.947 70.0161L46.3495 76.6284Z"/>
</mask>
<path d="M61.65 65.9971H57.3705L55.0376 60.4213L60.7427 57.5694C62.558 56.6607 63.3361 54.5863 62.6872 52.7717L55.2968 32.9325C54.5187 30.8581 52.3143 29.9501 50.2399 30.5983C50.2399 30.5983 50.1107 30.5983 50.1107 30.7282L44.6654 33.0618L43.8873 31.1172L46.8698 27.6165C48.9435 25.2823 50.2406 22.4297 50.6303 19.3181L54.3908 14.7801C56.8536 11.9269 56.3354 7.64814 53.4828 5.18466C52.9646 4.7963 52.4456 4.40725 51.9273 4.14744C50.5004 3.49926 49.0741 3.37003 47.5186 3.75908L47.1275 2.59195C46.4794 0.517506 44.1458 -0.519715 42.2006 0.258372L14.8417 10.1123C12.7673 10.8904 11.7301 13.0941 12.5088 15.0386V15.1685L13.1563 16.8539C9.78555 18.4101 8.22937 22.3005 9.39582 25.6713C10.3038 28.2647 12.6367 30.08 15.36 30.4684L21.4548 31.1165C23.9183 32.9318 26.9 34.099 29.8831 34.3581L34.1613 34.7472L34.9393 36.6917C34.0313 37.21 33.3832 38.1186 33.124 39.2851L32.216 43.6938L0.579102 56.5315L1.48778 58.995L19.6402 51.7345L24.0489 64.9599L0.579102 74.6839L1.61632 77.0188L38.8298 61.5884L45.3122 62.3665L47.6465 69.4978L44.5348 72.4802C43.3677 73.5175 42.9793 75.2029 43.6268 76.759L44.9239 80.0006L66.4471 71.5722L65.2799 68.4606C64.7617 66.9044 63.3354 65.9971 61.65 65.9971ZM50.8881 6.48169C52.9625 7.38969 54.0004 9.85249 53.0924 12.0575C52.9625 12.4459 52.7034 12.7057 52.4442 13.0947L50.8881 15.0393C50.7588 13.7429 50.499 12.5758 50.11 11.2794L48.4239 6.22256C49.3326 6.09265 50.11 6.22256 50.8881 6.48169ZM15.879 28.0056C14.0643 27.8757 12.5088 26.7085 11.9892 25.0231C11.2111 22.8188 12.1184 20.4852 14.1929 19.4473L16.0082 23.8567C16.6564 25.4122 17.5644 26.9683 18.6016 28.2647L15.879 28.0056ZM30.4014 31.8953C25.0854 31.3764 20.4176 28.0056 18.4724 22.9487L15.1016 14.3911C14.8417 13.7422 15.1016 12.9642 15.7491 12.7057L43.1079 2.85176C43.4976 2.72186 43.7561 2.72186 44.1458 2.85176C44.4042 2.98099 44.6647 3.24012 44.794 3.62985L47.6465 12.1874C49.2027 16.9845 48.1654 22.1713 44.9239 25.9311L40.9042 30.599L42.0707 33.7106L37.4028 35.6551L36.1065 32.4136L30.4014 31.8953ZM26.5117 63.9227L22.103 50.6966L25.0854 49.5294L28.327 59.3834L30.7905 58.6053L27.4197 48.4915L32.6058 46.4171L37.0145 59.5133L26.5117 63.9227ZM39.6079 58.995L34.8101 44.6025L35.7188 39.8047C35.848 39.4164 36.1072 39.0266 36.4969 38.8967L51.0187 32.6734C51.6668 32.4136 52.4456 32.6734 52.7047 33.3216L53.742 36.0449L47.3887 38.1193L48.1668 40.5828L54.52 38.5084L56.0755 42.6579L49.9814 44.7317L50.7595 47.1959L56.9828 45.1214L58.539 49.2703L52.5741 51.2155L53.3522 53.6797L59.4456 51.6052L60.0938 53.2906C60.3536 53.9395 60.0938 54.587 59.4456 54.8468L49.2027 59.903C48.9428 60.0329 48.6837 60.0329 48.4246 60.0329L39.6079 58.995ZM54.5187 66.1256L49.8508 67.6818L48.1654 62.7555C48.9428 62.8848 49.591 62.7555 50.2392 62.3665L52.4436 61.3286L54.5187 66.1256ZM46.3495 76.6284L45.9611 75.8503C45.8312 75.3321 45.9611 74.8131 46.2209 74.4248L50.6289 70.2745L56.2048 68.4599H61.3909C62.039 68.4599 62.4288 68.7183 62.6872 69.238L62.947 70.0161L46.3495 76.6284Z" fill="white"/>
<path d="M61.65 65.9971H57.3705L55.0376 60.4213L60.7427 57.5694C62.558 56.6607 63.3361 54.5863 62.6872 52.7717L55.2968 32.9325C54.5187 30.8581 52.3143 29.9501 50.2399 30.5983C50.2399 30.5983 50.1107 30.5983 50.1107 30.7282L44.6654 33.0618L43.8873 31.1172L46.8698 27.6165C48.9435 25.2823 50.2406 22.4297 50.6303 19.3181L54.3908 14.7801C56.8536 11.9269 56.3354 7.64814 53.4828 5.18466C52.9646 4.7963 52.4456 4.40725 51.9273 4.14744C50.5004 3.49926 49.0741 3.37003 47.5186 3.75908L47.1275 2.59195C46.4794 0.517506 44.1458 -0.519715 42.2006 0.258372L14.8417 10.1123C12.7673 10.8904 11.7301 13.0941 12.5088 15.0386V15.1685L13.1563 16.8539C9.78555 18.4101 8.22937 22.3005 9.39582 25.6713C10.3038 28.2647 12.6367 30.08 15.36 30.4684L21.4548 31.1165C23.9183 32.9318 26.9 34.099 29.8831 34.3581L34.1613 34.7472L34.9393 36.6917C34.0313 37.21 33.3832 38.1186 33.124 39.2851L32.216 43.6938L0.579102 56.5315L1.48778 58.995L19.6402 51.7345L24.0489 64.9599L0.579102 74.6839L1.61632 77.0188L38.8298 61.5884L45.3122 62.3665L47.6465 69.4978L44.5348 72.4802C43.3677 73.5175 42.9793 75.2029 43.6268 76.759L44.9239 80.0006L66.4471 71.5722L65.2799 68.4606C64.7617 66.9044 63.3354 65.9971 61.65 65.9971ZM50.8881 6.48169C52.9625 7.38969 54.0004 9.85249 53.0924 12.0575C52.9625 12.4459 52.7034 12.7057 52.4442 13.0947L50.8881 15.0393C50.7588 13.7429 50.499 12.5758 50.11 11.2794L48.4239 6.22256C49.3326 6.09265 50.11 6.22256 50.8881 6.48169ZM15.879 28.0056C14.0643 27.8757 12.5088 26.7085 11.9892 25.0231C11.2111 22.8188 12.1184 20.4852 14.1929 19.4473L16.0082 23.8567C16.6564 25.4122 17.5644 26.9683 18.6016 28.2647L15.879 28.0056ZM30.4014 31.8953C25.0854 31.3764 20.4176 28.0056 18.4724 22.9487L15.1016 14.3911C14.8417 13.7422 15.1016 12.9642 15.7491 12.7057L43.1079 2.85176C43.4976 2.72186 43.7561 2.72186 44.1458 2.85176C44.4042 2.98099 44.6647 3.24012 44.794 3.62985L47.6465 12.1874C49.2027 16.9845 48.1654 22.1713 44.9239 25.9311L40.9042 30.599L42.0707 33.7106L37.4028 35.6551L36.1065 32.4136L30.4014 31.8953ZM26.5117 63.9227L22.103 50.6966L25.0854 49.5294L28.327 59.3834L30.7905 58.6053L27.4197 48.4915L32.6058 46.4171L37.0145 59.5133L26.5117 63.9227ZM39.6079 58.995L34.8101 44.6025L35.7188 39.8047C35.848 39.4164 36.1072 39.0266 36.4969 38.8967L51.0187 32.6734C51.6668 32.4136 52.4456 32.6734 52.7047 33.3216L53.742 36.0449L47.3887 38.1193L48.1668 40.5828L54.52 38.5084L56.0755 42.6579L49.9814 44.7317L50.7595 47.1959L56.9828 45.1214L58.539 49.2703L52.5741 51.2155L53.3522 53.6797L59.4456 51.6052L60.0938 53.2906C60.3536 53.9395 60.0938 54.587 59.4456 54.8468L49.2027 59.903C48.9428 60.0329 48.6837 60.0329 48.4246 60.0329L39.6079 58.995ZM54.5187 66.1256L49.8508 67.6818L48.1654 62.7555C48.9428 62.8848 49.591 62.7555 50.2392 62.3665L52.4436 61.3286L54.5187 66.1256ZM46.3495 76.6284L45.9611 75.8503C45.8312 75.3321 45.9611 74.8131 46.2209 74.4248L50.6289 70.2745L56.2048 68.4599H61.3909C62.039 68.4599 62.4288 68.7183 62.6872 69.238L62.947 70.0161L46.3495 76.6284Z" stroke="white" stroke-width="0.4" mask="url(#path-1-outside-1)"/>
<path d="M64.5324 23.9859V24.0859H64.6324H67.2258H67.3258V23.9859V22.6895C67.3258 19.1148 70.1336 16.3064 73.7083 16.3064H73.8083V16.2064V13.613V13.513H73.7083C70.1336 13.513 67.3258 10.7059 67.3258 7.12985V5.8335V5.7335H67.2258H64.6324H64.5324V5.8335V7.12985C64.5324 10.7059 61.7247 13.513 58.1493 13.513H58.0493V13.613V16.2064V16.3064H58.1493C61.7247 16.3064 64.5324 19.1141 64.5324 22.6895V23.9859ZM63.0088 14.91C64.2083 14.1624 65.1813 13.1882 65.9288 11.9899C66.6763 13.1888 67.6499 14.1631 68.8488 14.9101C67.6499 15.6576 66.6763 16.6312 65.9288 17.8307C65.1813 16.6312 64.2083 15.6576 63.0088 14.91Z" fill="white" stroke="white" stroke-width="0.2"/>
<path d="M7.48055 49.9185V50.0185H7.58055H10.1739H10.2739V49.9185V48.6221C10.2739 45.0474 13.0824 42.239 16.6571 42.239H16.7571V42.139V39.5456V39.4456H16.6571C13.0824 39.4456 10.2739 36.6378 10.2739 33.0625V31.7661V31.6661H10.1739H7.58055H7.48055V31.7661V33.0625C7.48055 36.6379 4.6728 39.4456 1.09741 39.4456H0.997412V39.5456V42.139V42.239H1.09741C4.67347 42.239 7.48055 45.0468 7.48055 48.6221V49.9185ZM5.95698 40.842C7.15644 40.095 8.13007 39.1214 8.87759 37.922C9.62506 39.1214 10.5981 40.095 11.7975 40.842C10.5981 41.5896 9.62505 42.5638 8.87759 43.7627C8.13007 42.5638 7.15645 41.5896 5.95698 40.842Z" fill="white" stroke="white" stroke-width="0.2"/>
<path d="M72.512 31.7661V31.6661H72.412H69.8186H69.7186V31.7661V33.0625C69.7186 36.6379 66.9108 39.4456 63.3354 39.4456H63.2354V39.5456V42.139V42.239H63.3354C66.9108 42.239 69.7186 45.0474 69.7186 48.6221V49.9185V50.0185H69.8186H72.412H72.512V49.9185V48.6221C72.512 45.0474 75.3198 42.239 78.8944 42.239H78.9944V42.139V39.5456V39.4456H78.8944C75.3197 39.4456 72.512 36.6379 72.512 33.0625V31.7661ZM74.0349 40.842C72.8361 41.5896 71.863 42.5639 71.115 43.7628C70.3675 42.5639 69.3945 41.5896 68.195 40.842C69.3944 40.0951 70.3681 39.1215 71.115 37.922C71.8625 39.1215 72.8361 40.0951 74.0349 40.842Z" fill="white" stroke="white" stroke-width="0.2"/>
<path d="M39.0181 23.0076L38.9474 23.0783L39.0181 23.1491L40.8334 24.9644L40.9042 25.0351L40.9749 24.9644C44.5745 21.3644 44.7008 16.8174 43.8865 13.1373C43.4793 11.2968 42.8361 9.66879 42.2705 8.47668C41.9877 7.8805 41.7239 7.39275 41.5183 7.04128C41.4156 6.86559 41.3271 6.72355 41.2578 6.6188C41.1907 6.51745 41.1367 6.44339 41.1041 6.41073L41.0469 6.35356L40.979 6.39749L38.7754 7.82376L38.4912 8.00771H38.788C38.7996 8.0228 38.815 8.04408 38.8341 8.07192C38.881 8.14034 38.9463 8.24289 39.026 8.37674C39.1853 8.6442 39.4002 9.03378 39.6371 9.51967C40.1109 10.4917 40.6713 11.8464 41.0501 13.3776C41.8084 16.4433 41.8341 20.1917 39.0181 23.0076Z" fill="white" stroke="white" stroke-width="0.2"/>
</g>
<defs>
<clipPath id="clip0">
<rect width="78.3153" height="80" fill="white" transform="translate(0.579102)"/>
</clipPath>
</defs>
</svg>
