<svg width="60" height="65" viewBox="0 0 60 65" fill="none" xmlns="http://www.w3.org/2000/svg">
<path d="M2.79969 65H28.9301C29.1776 65 29.415 64.893 29.59 64.7025C29.765 64.5121 29.8633 64.2537 29.8633 63.9844C29.8633 63.715 29.765 63.4567 29.59 63.2662C29.415 63.0758 29.1776 62.9688 28.9301 62.9688H2.79969C2.55218 62.9688 2.31481 62.8617 2.13979 62.6713C1.96478 62.4808 1.86646 62.2225 1.86646 61.9531V3.04688C1.86646 2.77751 1.96478 2.51919 2.13979 2.32872C2.31481 2.13825 2.55218 2.03125 2.79969 2.03125H41.9953C42.2428 2.03125 42.4802 2.13825 42.6552 2.32872C42.8302 2.51919 42.9285 2.77751 42.9285 3.04688V13.2031C42.9285 13.4725 43.0268 13.7308 43.2019 13.9213C43.3769 14.1117 43.6142 14.2188 43.8617 14.2188C44.1093 14.2188 44.3466 14.1117 44.5216 13.9213C44.6967 13.7308 44.795 13.4725 44.795 13.2031V3.04688C44.795 1.36703 43.5388 0 41.9953 0H2.79969C1.25613 0 0 1.36703 0 3.04688V61.9531C0 63.633 1.25613 65 2.79969 65Z" fill="white"/>
<path d="M33.5962 21.3281V61.9531C33.5962 63.633 34.8523 65 36.3959 65H56.9269C58.4705 65 59.7266 63.633 59.7266 61.9531V21.3281C59.7266 19.6483 58.4705 18.2812 56.9269 18.2812H36.3959C34.8523 18.2812 33.5962 19.6483 33.5962 21.3281ZM57.8601 21.3281V61.9531C57.8601 62.2225 57.7618 62.4808 57.5868 62.6713C57.4118 62.8617 57.1744 62.9688 56.9269 62.9688H36.3959C36.1484 62.9688 35.911 62.8617 35.736 62.6713C35.561 62.4808 35.4626 62.2225 35.4626 61.9531V21.3281C35.4626 21.0588 35.561 20.8004 35.736 20.61C35.911 20.4195 36.1484 20.3125 36.3959 20.3125H56.9269C57.1744 20.3125 57.4118 20.4195 57.5868 20.61C57.7618 20.8004 57.8601 21.0588 57.8601 21.3281Z" fill="white"/>
<path d="M22.3975 58.9062C23.4283 58.9062 24.2639 57.9968 24.2639 56.875C24.2639 55.7532 23.4283 54.8438 22.3975 54.8438C21.3666 54.8438 20.531 55.7532 20.531 56.875C20.531 57.9968 21.3666 58.9062 22.3975 58.9062Z" fill="white"/>
<path d="M46.6614 58.9062C47.6922 58.9062 48.5278 57.9968 48.5278 56.875C48.5278 55.7532 47.6922 54.8438 46.6614 54.8438C45.6306 54.8438 44.7949 55.7532 44.7949 56.875C44.7949 57.9968 45.6306 58.9062 46.6614 58.9062Z" fill="white"/>
</svg>
