<svg width="65" height="65" viewBox="0 0 65 65" fill="none" xmlns="http://www.w3.org/2000/svg">
<line y1="64.5" x2="65" y2="64.5" stroke="white"/>
<path d="M63.7075 64.6169C63.5822 64.6168 63.4575 64.5985 63.3374 64.5626L37.4519 56.8513C37.2436 56.7894 37.0541 56.6764 36.9006 56.5226L10.7821 30.1065C10.7226 30.0443 10.6915 29.9693 10.6475 29.8994L1.17865 20.4305C0.423859 19.6735 0 18.6482 0 17.5792C0 16.5102 0.423859 15.4849 1.17865 14.7279L14.7323 1.17948C15.4884 0.424224 16.5135 0 17.5823 0C18.651 0 19.6761 0.424224 20.4322 1.17948L30.1108 10.8581C30.1729 10.9202 30.204 10.9978 30.2506 11.0677L56.4415 37.2612C56.5863 37.4053 56.6946 37.5819 56.7573 37.7763L64.9371 62.924C64.9999 63.1181 65.016 63.3243 64.984 63.5257C64.952 63.7272 64.8728 63.9182 64.7529 64.0833C64.6331 64.2483 64.4759 64.3827 64.2942 64.4754C64.1125 64.5682 63.9115 64.6167 63.7075 64.6169ZM29.1272 13.6019L26.4351 16.294L48.4972 38.4597L52.9677 37.445L29.1272 13.6019ZM46.882 40.5072L24.6024 18.1267L18.3019 24.4272L40.9387 46.5515H46.882V40.5072ZM13.5286 29.2005L37.4623 53.4085L38.9533 48.234L16.4744 26.2599L13.5286 29.2005ZM54.6657 39.7151L49.4705 40.8955V47.8458C49.4705 48.189 49.3342 48.5182 49.0914 48.761C48.8487 49.0037 48.5195 49.14 48.1763 49.14H41.3839L39.7454 54.8348L61.7143 61.3787L54.6657 39.7151ZM18.6021 3.00959C18.3307 2.74086 17.9642 2.59011 17.5823 2.59011C17.2003 2.59011 16.8338 2.74086 16.5624 3.00959L3.01133 16.5606C2.74056 16.8315 2.58845 17.1988 2.58845 17.5818C2.58845 17.9648 2.74056 18.3321 3.01133 18.603L11.7399 27.3315L27.3307 11.7407L18.6021 3.00959Z" fill="white"/>
</svg>
