<svg width="90" height="80" viewBox="0 0 90 80" fill="none" xmlns="http://www.w3.org/2000/svg">
<g clip-path="url(#clip0)">
<path d="M74.4052 59.7038L74.405 59.704C73.4226 60.6872 73.1428 62.1016 73.6755 63.3884C74.209 64.6772 75.4082 65.4819 76.7979 65.4819C78.1885 65.4819 79.3877 64.6772 79.9218 63.3869C80.4547 62.1008 80.1748 60.6864 79.1916 59.7032C78.5536 59.0637 77.7022 58.7124 76.7987 58.7124C75.8955 58.7124 75.045 59.0647 74.4052 59.7038Z" fill="white" stroke="white" stroke-width="0.5"/>
<path d="M76.6268 70.7975C76.6277 69.6406 75.6864 68.6994 74.5297 68.6994C73.3723 68.6994 72.4311 69.6406 72.4311 70.7973C72.4311 73.6956 70.0733 76.054 67.1752 76.054H58.0567V52.314C58.0567 48.5745 55.0141 45.5319 51.2746 45.5319H35.2692C31.5296 45.5319 28.4871 48.5745 28.4871 52.314V70.6132C28.4871 71.7708 29.4291 72.7119 30.5857 72.7119C31.7425 72.7119 32.6836 71.7698 32.6836 70.6132V52.314C32.6836 50.8886 33.8438 49.7284 35.2692 49.7284H51.2746C52.7 49.7284 53.8609 50.8887 53.8609 52.314V76.054H19.5535C16.6552 76.054 14.2968 73.6963 14.2968 70.7973V24.644L38.0597 9.22709L37.9237 9.01736L38.0597 9.22708C39.6007 8.22724 41.3877 7.69866 43.2296 7.69866C45.0716 7.69866 46.8594 8.22726 48.3995 9.22705L48.3995 9.22708C57.5762 15.1811 64.3165 19.5627 69.2754 22.7869L69.4116 22.5773L69.2754 22.7869L69.3434 22.8311C76.1869 27.2796 79.6307 29.5183 81.415 30.6444C82.3077 31.2078 82.7935 31.4983 83.0842 31.6475C83.2298 31.7223 83.3381 31.7678 83.4312 31.793C83.532 31.8203 83.605 31.8207 83.6635 31.8207H83.6636H83.6636H83.6637H83.6638H83.6638H83.6639H83.664H83.664H83.6641H83.6641H83.6642H83.6643H83.6643H83.6644H83.6644H83.6645H83.6646H83.6646H83.6647H83.6648H83.6648H83.6649H83.665H83.665H83.6651H83.6652H83.6652H83.6653H83.6653H83.6654H83.6655H83.6655H83.6656H83.6656H83.6657H83.6658H83.6658H83.6659H83.666H83.666H83.6661H83.6662H83.6662H83.6663H83.6663H83.6664H83.6665H83.6665H83.6666H83.6667H83.6667H83.6668H83.6669H83.6669H83.667H83.6671H83.6671H83.6672H83.6672H83.6673H83.6674H83.6674H83.6675H83.6676H83.6676H83.6677H83.6678H83.6678H83.6679H83.6679H83.668H83.6681H83.6681H83.6682H83.6683H83.6683H83.6684H83.6684H83.6685H83.6686H83.6686H83.6687H83.6688H83.6812L83.6937 31.8195L83.8325 31.8056C84.775 31.8003 85.561 31.2074 85.8303 30.3003L85.8303 30.3001C86.0993 29.3908 85.7589 28.463 84.9638 27.9474L62.4701 13.353V3.94554H70.7764V13.2473C70.7764 14.4049 71.7183 15.346 72.875 15.346C74.0318 15.346 74.9729 14.4047 74.9729 13.2473V3.89853C75.9173 3.69422 76.6268 2.85284 76.6268 1.84766C76.6268 0.690265 75.6857 -0.250977 74.529 -0.250977H58.9008C57.7432 -0.250977 56.8029 0.690331 56.8029 1.84766C56.8029 2.78653 57.4225 3.58232 58.2735 3.84928V10.6299L50.684 5.70644C48.4613 4.26456 45.8832 3.50289 43.2296 3.50289C40.5753 3.50289 37.9965 4.26455 35.7744 5.70646L1.49468 27.9467L1.4946 27.9467C0.5245 28.5766 0.248234 29.8782 0.876844 30.8494L0.876922 30.8495C1.48686 31.7907 2.83307 32.0814 3.77919 31.4673C3.7792 31.4673 3.77922 31.4673 3.77923 31.4673L10.1003 27.3663V70.7973C10.1003 76.0098 14.3411 80.2498 19.5535 80.2498H67.1744C72.3867 80.2498 76.6267 76.0091 76.6268 70.7975ZM76.6268 70.7975L76.3768 70.7973M76.6268 70.7975C76.6268 70.7975 76.6268 70.7974 76.6268 70.7973H76.3768M76.3768 70.7973C76.3776 69.7787 75.5483 68.9494 74.5297 68.9494C73.5103 68.9494 72.6811 69.7787 72.6811 70.7973C72.6811 73.8336 70.2114 76.304 67.1752 76.304H58.0567L76.3768 70.7973Z" fill="white" stroke="white" stroke-width="0.5"/>
<path d="M72.4304 32.9216V38.8976C72.4304 40.0546 73.3726 40.9948 74.5291 40.9948C75.6857 40.9948 76.6269 40.0537 76.6269 38.8976V32.9216C76.6269 31.7642 75.6858 30.823 74.5291 30.823C73.3724 30.823 72.4304 31.7641 72.4304 32.9216Z" fill="white" stroke="white" stroke-width="0.5"/>
<path d="M76.7987 51.9065C74.0793 51.9065 71.5205 52.9674 69.5948 54.893C69.1987 55.2892 68.9799 55.8168 68.9799 56.3767C68.9799 56.9362 69.1984 57.4646 69.5948 57.8596C69.991 58.2557 70.5186 58.4746 71.0777 58.4746C71.6367 58.4746 72.1651 58.2559 72.5606 57.8596C73.6931 56.7271 75.1982 56.1038 76.798 56.1038C78.3984 56.1038 79.902 56.7263 81.0353 57.8596C81.8319 58.6569 83.2064 58.6548 84.0025 57.8597L84.0026 57.8596C84.3987 57.4634 84.6176 56.9358 84.6176 56.3759C84.6176 55.8164 84.399 55.288 84.0026 54.8931C82.0785 52.9674 79.5188 51.9065 76.7987 51.9065Z" fill="white" stroke="white" stroke-width="0.5"/>
<path d="M67.1016 52.3998L67.1016 52.3998C69.6942 49.8065 73.1377 48.3789 76.7988 48.3789C80.4606 48.3789 83.9034 49.8065 86.496 52.3998L86.496 52.3998C86.8921 52.796 87.4197 53.0148 87.9796 53.0148H87.9799C88.8421 53.0139 89.5862 52.5141 89.9174 51.7151L89.9174 51.7149C90.2465 50.9193 90.0729 50.0422 89.464 49.4333C86.0791 46.0476 81.5803 44.1831 76.7995 44.1831C72.0179 44.1831 67.5199 46.0484 64.135 49.4333C63.7387 49.8288 63.52 50.3564 63.52 50.9162C63.52 51.4758 63.7387 52.0042 64.135 52.3998C64.93 53.1963 66.3054 53.196 67.1016 52.3998Z" fill="white" stroke="white" stroke-width="0.5"/>
</g>
<defs>
<clipPath id="clip0">
<rect width="89.041" height="80" fill="white" transform="translate(0.790283)"/>
</clipPath>
</defs>
</svg>
