<svg width="66" height="65" viewBox="0 0 66 65" fill="none" xmlns="http://www.w3.org/2000/svg">
<path d="M62.8689 52.0358L51.8731 41.04L43.4154 37.5457C46.2315 33.5409 47.7403 28.7632 47.7348 23.8674C47.7348 10.7068 37.028 0 23.8674 0C10.7068 0 0 10.7068 0 23.8674C0 37.028 10.7068 47.7348 23.8674 47.7348C28.8058 47.7405 33.6231 46.2056 37.648 43.3442L41.1332 51.7791L52.1286 62.7755C52.8338 63.4807 53.671 64.0401 54.5923 64.4218C55.5137 64.8035 56.5012 65 57.4985 65C58.4958 65 59.4834 64.8036 60.4048 64.422C61.3262 64.0404 62.1634 63.481 62.8686 62.7758C63.5738 62.0707 64.1332 61.2335 64.5149 60.3121C64.8966 59.3907 65.0931 58.4032 65.0931 57.4059C65.0931 56.4086 64.8967 55.4211 64.5151 54.4997C64.1335 53.5783 63.5741 52.7411 62.8689 52.0358ZM4.33953 23.8674C4.33953 13.1 13.1 4.33953 23.8674 4.33953C34.6349 4.33953 43.3953 13.1 43.3953 23.8674C43.3953 34.6349 34.6349 43.3953 23.8674 43.3953C13.1 43.3953 4.33953 34.6349 4.33953 23.8674ZM59.8002 59.7071C59.1893 60.3165 58.3617 60.6588 57.4988 60.6588C56.6359 60.6588 55.8082 60.3165 55.1973 59.7071L44.8134 49.3231L41.5731 41.4801L49.4164 44.7203L59.8005 55.1043C60.4099 55.7152 60.7521 56.5429 60.752 57.4057C60.752 58.2686 60.4097 59.0962 59.8002 59.7071Z" fill="white"/>
</svg>
