<svg width="57" height="65" viewBox="0 0 57 65" fill="none" xmlns="http://www.w3.org/2000/svg">
<path d="M28.4375 0C17.2372 0 8.125 9.11219 8.125 20.3125V26.4062H5.07812C3.73182 26.4079 2.44111 26.9434 1.48913 27.8954C0.537146 28.8474 0.00161267 30.1381 0 31.4844L0 59.9219C0 62.7209 2.27906 65 5.07812 65H51.7969C54.5959 65 56.875 62.7209 56.875 59.9219V31.4844C56.875 28.6853 54.5959 26.4062 51.7969 26.4062H48.75V20.3125C48.75 9.11219 39.6378 0 28.4375 0ZM10.1562 20.3125C10.1562 10.2334 18.3584 2.03125 28.4375 2.03125C38.5166 2.03125 46.7188 10.2334 46.7188 20.3125V26.4062H40.625V20.3125C40.625 13.5911 35.1589 8.125 28.4375 8.125C21.7161 8.125 16.25 13.5911 16.25 20.3125V26.4062H10.1562V20.3125ZM38.5938 26.4062H18.2812V20.3125C18.2812 14.7123 22.8373 10.1562 28.4375 10.1562C34.0377 10.1562 38.5938 14.7123 38.5938 20.3125V26.4062ZM24.9702 42.6562L14.8139 52.8125H5.49859L15.6548 42.6562H24.9702ZM37.1577 42.6562L27.0014 52.8125H17.6861L27.8423 42.6562H37.1577ZM49.3452 42.6562L39.1889 52.8125H29.8736L40.0298 42.6562H49.3452ZM54.8438 42.6562V52.8125H42.0611L52.2173 42.6562H54.8438ZM2.62641 52.8125H2.03125V42.6562H12.7827L2.62641 52.8125ZM51.7969 62.9688H5.07812C3.39828 62.9688 2.03125 61.6017 2.03125 59.9219V54.8438H54.8438V59.9219C54.8438 61.6017 53.4767 62.9688 51.7969 62.9688ZM54.8438 31.4844V40.625H2.03125V31.4844C2.03125 29.8045 3.39828 28.4375 5.07812 28.4375H51.7969C53.4767 28.4375 54.8438 29.8045 54.8438 31.4844Z" fill="white"/>
</svg>
